<svg width="361.3" height="72" viewBox="0 0 361.3 72" xmlns="http://www.w3.org/2000/svg"><g id="svgGroup" stroke-linecap="round" fill-rule="evenodd" font-size="9pt" stroke="#000" stroke-width="0.25mm" fill="#000" style="stroke:#000;stroke-width:0.25mm;fill:#000"><path d="M 289 22.3 L 278.7 70.1 A 1.301 1.301 0 0 1 278.833 70.353 A 0.959 0.959 0 0 1 278.9 70.7 Q 278.9 71.732 278.082 71.945 A 1.915 1.915 0 0 1 277.6 72 Q 276.569 72 276.356 71.182 A 1.915 1.915 0 0 1 276.3 70.7 A 1.359 1.359 0 0 1 276.31 70.535 Q 276.322 70.435 276.35 70.35 A 1.304 1.304 0 0 0 276.377 70.261 Q 276.388 70.216 276.394 70.176 A 0.519 0.519 0 0 0 276.4 70.1 L 267 26.3 L 257.5 70.1 A 1.301 1.301 0 0 1 257.633 70.353 A 0.959 0.959 0 0 1 257.7 70.7 Q 257.7 71.732 256.882 71.945 A 1.915 1.915 0 0 1 256.4 72 Q 255.369 72 255.156 71.182 A 1.915 1.915 0 0 1 255.1 70.7 Q 255.1 70.3 255.2 70.1 L 244.9 22.3 Q 244.5 22 244.5 21.3 Q 244.5 20.269 245.319 20.056 A 1.915 1.915 0 0 1 245.8 20 Q 246.832 20 247.045 20.819 A 1.915 1.915 0 0 1 247.1 21.3 A 0.316 0.316 0 0 1 247.093 21.355 Q 247.068 21.484 246.954 21.836 A 20.867 20.867 0 0 1 246.9 22 L 256.4 65.8 L 265.8 22 A 0.426 0.426 0 0 0 265.771 21.847 A 0.523 0.523 0 0 0 265.75 21.8 A 0.482 0.482 0 0 1 265.71 21.688 A 0.408 0.408 0 0 1 265.7 21.6 L 265.7 21.3 Q 265.7 20.269 266.519 20.056 A 1.915 1.915 0 0 1 267 20 Q 268.032 20 268.245 20.819 A 1.915 1.915 0 0 1 268.3 21.3 A 1.351 1.351 0 0 1 268.245 21.692 A 1.152 1.152 0 0 1 268.1 22 L 277.6 65.8 L 287 22 A 0.426 0.426 0 0 0 286.971 21.847 A 0.523 0.523 0 0 0 286.95 21.8 A 0.482 0.482 0 0 1 286.91 21.688 A 0.408 0.408 0 0 1 286.9 21.6 L 286.9 21.3 Q 286.9 20.269 287.719 20.056 A 1.915 1.915 0 0 1 288.2 20 Q 289.232 20 289.445 20.819 A 1.915 1.915 0 0 1 289.5 21.3 A 1.536 1.536 0 0 1 289.456 21.681 A 0.975 0.975 0 0 1 289 22.3 Z M 27.5 2.2 L 27.5 69.9 A 1.004 1.004 0 0 1 27.779 70.449 A 1.432 1.432 0 0 1 27.8 70.7 Q 27.8 71.732 26.982 71.945 A 1.915 1.915 0 0 1 26.5 72 Q 25.469 72 25.256 71.182 A 1.915 1.915 0 0 1 25.2 70.7 A 1.353 1.353 0 0 1 25.242 70.353 A 0.985 0.985 0 0 1 25.5 69.9 L 25.5 5.1 L 14.9 23 L 12.8 23 L 2.3 5.2 L 2.3 69.9 A 1.004 1.004 0 0 1 2.579 70.449 A 1.432 1.432 0 0 1 2.6 70.7 Q 2.6 71.732 1.782 71.945 A 1.915 1.915 0 0 1 1.3 72 Q 0.269 72 0.056 71.182 A 1.915 1.915 0 0 1 0 70.7 A 1.353 1.353 0 0 1 0.042 70.353 A 0.985 0.985 0 0 1 0.3 69.9 L 0.3 2.2 A 2.681 2.681 0 0 1 0.132 1.876 Q 0.059 1.704 0.026 1.546 A 1.212 1.212 0 0 1 0 1.3 Q 0 0.269 0.819 0.056 A 1.915 1.915 0 0 1 1.3 0 Q 2.332 0 2.545 0.819 A 1.915 1.915 0 0 1 2.6 1.3 Q 2.6 1.4 2.55 1.55 L 2.5 1.7 L 13.9 21 L 25.2 1.7 L 25.2 1.3 Q 25.2 0.269 26.019 0.056 A 1.915 1.915 0 0 1 26.5 0 Q 27.532 0 27.745 0.819 A 1.915 1.915 0 0 1 27.8 1.3 Q 27.8 1.7 27.5 2.2 Z M 348.2 42.3 L 360.6 69.6 Q 361.3 69.9 361.3 70.7 Q 361.3 71.732 360.482 71.945 A 1.915 1.915 0 0 1 360 72 Q 358.969 72 358.756 71.182 A 1.915 1.915 0 0 1 358.7 70.7 L 358.7 70.3 L 346.9 44.4 L 342.4 51.9 L 342.4 69.9 A 1.004 1.004 0 0 1 342.679 70.449 A 1.432 1.432 0 0 1 342.7 70.7 Q 342.7 71.732 341.882 71.945 A 1.915 1.915 0 0 1 341.4 72 Q 340.369 72 340.156 71.182 A 1.915 1.915 0 0 1 340.1 70.7 A 1.353 1.353 0 0 1 340.142 70.353 A 0.985 0.985 0 0 1 340.4 69.9 L 340.4 2.2 A 2.681 2.681 0 0 1 340.232 1.876 Q 340.159 1.704 340.126 1.546 A 1.212 1.212 0 0 1 340.1 1.3 Q 340.1 0.269 340.919 0.056 A 1.915 1.915 0 0 1 341.4 0 Q 342.432 0 342.645 0.819 A 1.915 1.915 0 0 1 342.7 1.3 Q 342.7 1.7 342.4 2.2 L 342.4 48 L 358.4 21.5 L 358.4 21.3 Q 358.4 20.269 359.219 20.056 A 1.915 1.915 0 0 1 359.7 20 Q 360.732 20 360.945 20.819 A 1.915 1.915 0 0 1 361 21.3 Q 361 22.227 360.227 22.553 A 1.766 1.766 0 0 1 360.1 22.6 L 348.2 42.3 Z M 194.2 31.5 L 194.2 69.9 A 1.004 1.004 0 0 1 194.479 70.449 A 1.432 1.432 0 0 1 194.5 70.7 Q 194.5 71.732 193.682 71.945 A 1.915 1.915 0 0 1 193.2 72 Q 192.169 72 191.956 71.182 A 1.915 1.915 0 0 1 191.9 70.7 A 1.353 1.353 0 0 1 191.942 70.353 A 0.985 0.985 0 0 1 192.2 69.9 L 192.2 31.5 Q 192.2 29.2 191.5 27.05 Q 190.8 24.9 189 23.45 A 5.97 5.97 0 0 0 187.003 22.415 Q 186.167 22.156 185.164 22.059 A 13.1 13.1 0 0 0 183.9 22 A 8.92 8.92 0 0 0 181.782 22.239 A 6.576 6.576 0 0 0 179.25 23.45 Q 177.4 24.9 176.5 27.05 Q 175.6 29.2 175.6 31.5 L 175.6 69.9 A 1.004 1.004 0 0 1 175.879 70.449 A 1.432 1.432 0 0 1 175.9 70.7 Q 175.9 71.732 175.082 71.945 A 1.915 1.915 0 0 1 174.6 72 Q 173.569 72 173.356 71.182 A 1.915 1.915 0 0 1 173.3 70.7 A 1.353 1.353 0 0 1 173.342 70.353 A 0.985 0.985 0 0 1 173.6 69.9 L 173.6 22.2 A 2.681 2.681 0 0 1 173.432 21.876 Q 173.359 21.704 173.326 21.546 A 1.212 1.212 0 0 1 173.3 21.3 Q 173.3 20.269 174.119 20.056 A 1.915 1.915 0 0 1 174.6 20 Q 175.632 20 175.845 20.819 A 1.915 1.915 0 0 1 175.9 21.3 Q 175.9 21.7 175.6 22.2 L 175.6 24.7 A 9.064 9.064 0 0 1 178.376 21.55 Q 180.627 20 183.9 20 A 15.187 15.187 0 0 1 186.337 20.183 Q 187.631 20.394 188.676 20.848 A 7.17 7.17 0 0 1 190.15 21.7 Q 192.4 23.4 193.3 26 A 16.689 16.689 0 0 1 194.2 31.478 A 18.86 18.86 0 0 1 194.2 31.5 Z M 62.4 60.5 L 62.4 31.5 A 16.712 16.712 0 0 1 63.272 26.082 A 15.968 15.968 0 0 1 63.3 26 Q 64.2 23.4 66.45 21.7 Q 68.7 20 72.7 20 Q 78.4 20 81 24.7 L 81 2.2 A 2.681 2.681 0 0 1 80.832 1.876 Q 80.759 1.704 80.726 1.546 A 1.212 1.212 0 0 1 80.7 1.3 Q 80.7 0.269 81.519 0.056 A 1.915 1.915 0 0 1 82 0 Q 83.032 0 83.245 0.819 A 1.915 1.915 0 0 1 83.3 1.3 Q 83.3 1.7 83 2.2 L 83 69.9 A 1.004 1.004 0 0 1 83.279 70.449 A 1.432 1.432 0 0 1 83.3 70.7 Q 83.3 71.732 82.482 71.945 A 1.915 1.915 0 0 1 82 72 Q 80.969 72 80.756 71.182 A 1.915 1.915 0 0 1 80.7 70.7 A 1.353 1.353 0 0 1 80.742 70.353 A 0.985 0.985 0 0 1 81 69.9 L 81 67.8 Q 79.7 69.7 77.7 70.85 Q 75.7 72 72.7 72 A 15.187 15.187 0 0 1 70.264 71.817 Q 68.969 71.606 67.924 71.153 A 7.17 7.17 0 0 1 66.45 70.3 Q 64.2 68.6 63.3 65.95 Q 62.4 63.3 62.4 60.5 Z M 110.7 31.5 L 110.7 69.9 A 1.709 1.709 0 0 1 110.886 70.206 Q 110.989 70.43 110.999 70.654 A 1.068 1.068 0 0 1 111 70.7 Q 111 71.732 110.182 71.945 A 1.915 1.915 0 0 1 109.7 72 Q 108.669 72 108.456 71.182 A 1.915 1.915 0 0 1 108.4 70.7 A 1.353 1.353 0 0 1 108.442 70.353 A 0.985 0.985 0 0 1 108.7 69.9 L 108.7 67.8 Q 107.4 69.7 105.4 70.85 Q 103.4 72 100.4 72 Q 96.5 72 94.25 70.3 Q 92 68.6 91.05 65.95 Q 90.1 63.3 90.1 60.5 L 90.1 52.4 A 16.712 16.712 0 0 1 90.972 46.982 A 15.968 15.968 0 0 1 91 46.9 A 7.619 7.619 0 0 1 93.215 43.658 A 10.455 10.455 0 0 1 94.65 42.6 A 9.468 9.468 0 0 1 96.955 41.602 Q 99.33 40.9 102.8 40.9 L 108.7 40.9 L 108.7 31.5 Q 108.7 29.2 107.95 27.05 Q 107.2 24.9 105.4 23.45 A 6.046 6.046 0 0 0 103.328 22.386 Q 102.449 22.121 101.395 22.038 A 12.711 12.711 0 0 0 100.4 22 A 11.791 11.791 0 0 0 98.075 22.214 Q 96.72 22.487 95.702 23.108 A 5.668 5.668 0 0 0 94 24.7 Q 92.1 27.4 92 30.6 A 1.709 1.709 0 0 1 92.186 30.906 Q 92.289 31.13 92.299 31.354 A 1.068 1.068 0 0 1 92.3 31.4 Q 92.3 32.344 91.496 32.546 A 2.046 2.046 0 0 1 91 32.6 Q 89.7 32.6 89.7 31.4 A 1.913 1.913 0 0 1 89.728 31.062 Q 89.792 30.709 90 30.5 Q 90.2 27.8 91.25 25.4 Q 92.3 23 94.5 21.5 A 7.938 7.938 0 0 1 96.887 20.425 Q 98.431 20 100.4 20 Q 104.3 20 106.55 21.7 Q 108.8 23.4 109.75 26 Q 110.7 28.6 110.7 31.5 Z M 156.3 31.5 L 156.3 69.9 A 1.709 1.709 0 0 1 156.486 70.206 Q 156.589 70.43 156.599 70.654 A 1.068 1.068 0 0 1 156.6 70.7 Q 156.6 71.732 155.782 71.945 A 1.915 1.915 0 0 1 155.3 72 Q 154.269 72 154.056 71.182 A 1.915 1.915 0 0 1 154 70.7 A 1.353 1.353 0 0 1 154.042 70.353 A 0.985 0.985 0 0 1 154.3 69.9 L 154.3 67.8 Q 153 69.7 151 70.85 Q 149 72 146 72 Q 142.1 72 139.85 70.3 Q 137.6 68.6 136.65 65.95 Q 135.7 63.3 135.7 60.5 L 135.7 52.4 A 16.712 16.712 0 0 1 136.572 46.982 A 15.968 15.968 0 0 1 136.6 46.9 A 7.619 7.619 0 0 1 138.815 43.658 A 10.455 10.455 0 0 1 140.25 42.6 A 9.468 9.468 0 0 1 142.555 41.602 Q 144.93 40.9 148.4 40.9 L 154.3 40.9 L 154.3 31.5 Q 154.3 29.2 153.55 27.05 Q 152.8 24.9 151 23.45 A 6.046 6.046 0 0 0 148.928 22.386 Q 148.049 22.121 146.995 22.038 A 12.711 12.711 0 0 0 146 22 A 11.791 11.791 0 0 0 143.675 22.214 Q 142.32 22.487 141.302 23.108 A 5.668 5.668 0 0 0 139.6 24.7 Q 137.7 27.4 137.6 30.6 A 1.709 1.709 0 0 1 137.786 30.906 Q 137.889 31.13 137.899 31.354 A 1.068 1.068 0 0 1 137.9 31.4 Q 137.9 32.344 137.096 32.546 A 2.046 2.046 0 0 1 136.6 32.6 Q 135.3 32.6 135.3 31.4 A 1.913 1.913 0 0 1 135.328 31.062 Q 135.392 30.709 135.6 30.5 Q 135.8 27.8 136.85 25.4 Q 137.9 23 140.1 21.5 A 7.938 7.938 0 0 1 142.487 20.425 Q 144.031 20 146 20 Q 149.9 20 152.15 21.7 Q 154.4 23.4 155.35 26 Q 156.3 28.6 156.3 31.5 Z M 123 23 L 123 60.2 Q 123 63.7 124.7 66.6 A 5.844 5.844 0 0 0 127.986 69.208 Q 129.219 69.628 130.8 69.7 A 2.681 2.681 0 0 1 131.125 69.532 Q 131.297 69.459 131.455 69.426 A 1.212 1.212 0 0 1 131.7 69.4 Q 132.732 69.4 132.945 70.219 A 1.915 1.915 0 0 1 133 70.7 Q 133 71.732 132.182 71.945 A 1.915 1.915 0 0 1 131.7 72 Q 131.3 72 130.8 71.7 A 14.642 14.642 0 0 1 128.44 71.391 Q 126.361 70.933 124.95 69.85 Q 122.8 68.2 121.9 65.6 Q 121 63 121 60.2 L 121 23 L 116.5 23 A 1.004 1.004 0 0 1 115.952 23.279 A 1.432 1.432 0 0 1 115.7 23.3 Q 114.669 23.3 114.456 22.482 A 1.915 1.915 0 0 1 114.4 22 Q 114.4 20.969 115.219 20.756 A 1.915 1.915 0 0 1 115.7 20.7 A 1.353 1.353 0 0 1 116.047 20.742 A 0.985 0.985 0 0 1 116.5 21 L 121 21 L 121 6.1 A 2.681 2.681 0 0 1 120.832 5.776 Q 120.759 5.604 120.726 5.446 A 1.212 1.212 0 0 1 120.7 5.2 Q 120.7 4.169 121.519 3.956 A 1.915 1.915 0 0 1 122 3.9 Q 123.032 3.9 123.245 4.719 A 1.915 1.915 0 0 1 123.3 5.2 Q 123.3 5.5 123 6.1 L 123 21 L 130.8 21 A 2.681 2.681 0 0 1 131.125 20.832 Q 131.297 20.759 131.455 20.726 A 1.212 1.212 0 0 1 131.7 20.7 Q 132.732 20.7 132.945 21.519 A 1.915 1.915 0 0 1 133 22 Q 133 23.032 132.182 23.245 A 1.915 1.915 0 0 1 131.7 23.3 Q 131.3 23.3 130.8 23 L 123 23 Z M 233.8 23 L 233.8 60.2 Q 233.8 63.7 235.5 66.6 A 5.844 5.844 0 0 0 238.786 69.208 Q 240.019 69.628 241.6 69.7 A 2.681 2.681 0 0 1 241.925 69.532 Q 242.097 69.459 242.255 69.426 A 1.212 1.212 0 0 1 242.5 69.4 Q 243.532 69.4 243.745 70.219 A 1.915 1.915 0 0 1 243.8 70.7 Q 243.8 71.732 242.982 71.945 A 1.915 1.915 0 0 1 242.5 72 Q 242.1 72 241.6 71.7 A 14.642 14.642 0 0 1 239.24 71.391 Q 237.161 70.933 235.75 69.85 Q 233.6 68.2 232.7 65.6 Q 231.8 63 231.8 60.2 L 231.8 23 L 227.3 23 A 1.004 1.004 0 0 1 226.752 23.279 A 1.432 1.432 0 0 1 226.5 23.3 Q 225.469 23.3 225.256 22.482 A 1.915 1.915 0 0 1 225.2 22 Q 225.2 20.969 226.019 20.756 A 1.915 1.915 0 0 1 226.5 20.7 A 1.353 1.353 0 0 1 226.847 20.742 A 0.985 0.985 0 0 1 227.3 21 L 231.8 21 L 231.8 6.1 A 2.681 2.681 0 0 1 231.632 5.776 Q 231.559 5.604 231.526 5.446 A 1.212 1.212 0 0 1 231.5 5.2 Q 231.5 4.169 232.319 3.956 A 1.915 1.915 0 0 1 232.8 3.9 Q 233.832 3.9 234.045 4.719 A 1.915 1.915 0 0 1 234.1 5.2 Q 234.1 5.5 233.8 6.1 L 233.8 21 L 241.6 21 A 2.681 2.681 0 0 1 241.925 20.832 Q 242.097 20.759 242.255 20.726 A 1.212 1.212 0 0 1 242.5 20.7 Q 243.532 20.7 243.745 21.519 A 1.915 1.915 0 0 1 243.8 22 Q 243.8 23.032 242.982 23.245 A 1.915 1.915 0 0 1 242.5 23.3 Q 242.1 23.3 241.6 23 L 233.8 23 Z M 55.9 31.5 L 55.9 42.9 L 37.3 42.9 L 37.3 60.5 Q 37.3 62.8 38.05 65 Q 38.8 67.2 40.65 68.6 Q 42.276 69.831 44.868 69.98 A 12.763 12.763 0 0 0 45.6 70 A 12.972 12.972 0 0 0 47.889 69.813 Q 49.102 69.595 50.032 69.123 A 5.168 5.168 0 0 0 52.05 67.35 Q 53.8 64.7 53.9 61.4 A 1.004 1.004 0 0 1 53.621 60.852 A 1.432 1.432 0 0 1 53.6 60.6 Q 53.6 59.569 54.419 59.356 A 1.915 1.915 0 0 1 54.9 59.3 Q 55.932 59.3 56.145 60.119 A 1.915 1.915 0 0 1 56.2 60.6 A 1.353 1.353 0 0 1 56.158 60.947 A 0.985 0.985 0 0 1 55.9 61.4 Q 55.7 64.1 54.7 66.5 Q 53.7 68.9 51.55 70.45 Q 49.4 72 45.6 72 Q 41.7 72 39.45 70.3 Q 37.2 68.6 36.25 65.95 Q 35.3 63.3 35.3 60.5 L 35.3 31.5 Q 35.3 28.6 36.25 26 Q 37.2 23.4 39.45 21.7 A 7.77 7.77 0 0 1 42.011 20.454 Q 43.585 20 45.6 20 Q 49.5 20 51.75 21.7 Q 54 23.4 54.95 26 Q 55.9 28.6 55.9 31.5 Z M 222.1 31.5 L 222.1 42.9 L 203.5 42.9 L 203.5 60.5 Q 203.5 62.8 204.25 65 Q 205 67.2 206.85 68.6 Q 208.476 69.831 211.068 69.98 A 12.763 12.763 0 0 0 211.8 70 A 12.972 12.972 0 0 0 214.089 69.813 Q 215.302 69.595 216.232 69.123 A 5.168 5.168 0 0 0 218.25 67.35 Q 220 64.7 220.1 61.4 A 1.004 1.004 0 0 1 219.821 60.852 A 1.432 1.432 0 0 1 219.8 60.6 Q 219.8 59.569 220.619 59.356 A 1.915 1.915 0 0 1 221.1 59.3 Q 222.132 59.3 222.345 60.119 A 1.915 1.915 0 0 1 222.4 60.6 A 1.353 1.353 0 0 1 222.358 60.947 A 0.985 0.985 0 0 1 222.1 61.4 Q 221.9 64.1 220.9 66.5 Q 219.9 68.9 217.75 70.45 Q 215.6 72 211.8 72 Q 207.9 72 205.65 70.3 Q 203.4 68.6 202.45 65.95 Q 201.5 63.3 201.5 60.5 L 201.5 31.5 Q 201.5 28.6 202.45 26 Q 203.4 23.4 205.65 21.7 A 7.77 7.77 0 0 1 208.211 20.454 Q 209.785 20 211.8 20 Q 215.7 20 217.95 21.7 Q 220.2 23.4 221.15 26 Q 222.1 28.6 222.1 31.5 Z M 323.9 32.5 L 323.9 69.9 A 1.004 1.004 0 0 1 324.179 70.449 A 1.432 1.432 0 0 1 324.2 70.7 Q 324.2 71.732 323.382 71.945 A 1.915 1.915 0 0 1 322.9 72 Q 321.869 72 321.656 71.182 A 1.915 1.915 0 0 1 321.6 70.7 A 1.353 1.353 0 0 1 321.642 70.353 A 0.985 0.985 0 0 1 321.9 69.9 L 321.9 22.2 A 2.681 2.681 0 0 1 321.732 21.876 Q 321.659 21.704 321.626 21.546 A 1.212 1.212 0 0 1 321.6 21.3 Q 321.6 20.269 322.419 20.056 A 1.915 1.915 0 0 1 322.9 20 Q 323.932 20 324.145 20.819 A 1.915 1.915 0 0 1 324.2 21.3 Q 324.2 21.7 323.9 22.2 L 323.9 25.7 A 11.803 11.803 0 0 1 325.385 23.73 A 9.161 9.161 0 0 1 327.25 22.2 Q 329.2 21 332.2 21 L 333.9 21 A 2.681 2.681 0 0 1 334.225 20.832 Q 334.397 20.759 334.555 20.726 A 1.212 1.212 0 0 1 334.8 20.7 Q 335.832 20.7 336.045 21.519 A 1.915 1.915 0 0 1 336.1 22 Q 336.1 23.032 335.282 23.245 A 1.915 1.915 0 0 1 334.8 23.3 Q 334.4 23.3 333.9 23 L 332.2 23 A 9.293 9.293 0 0 0 329.675 23.323 A 6.523 6.523 0 0 0 325.95 26 Q 323.9 29 323.9 32.5 Z M 314.4 31.5 L 314.4 60.5 Q 314.4 63.3 313.45 65.95 Q 312.5 68.6 310.25 70.3 A 7.77 7.77 0 0 1 307.689 71.547 Q 306.115 72 304.1 72 Q 300.2 72 297.95 70.3 Q 295.7 68.6 294.75 65.95 Q 293.8 63.3 293.8 60.5 L 293.8 31.5 Q 293.8 28.6 294.75 26 Q 295.7 23.4 297.95 21.7 A 7.77 7.77 0 0 1 300.511 20.454 Q 302.085 20 304.1 20 Q 308 20 310.25 21.7 Q 312.5 23.4 313.45 26 Q 314.4 28.6 314.4 31.5 Z M 295.8 31.5 L 295.8 60.5 Q 295.8 62.8 296.55 65 Q 297.3 67.2 299.15 68.6 Q 300.776 69.831 303.368 69.98 A 12.763 12.763 0 0 0 304.1 70 Q 307.4 70 309.2 68.6 Q 311 67.2 311.7 65 Q 312.4 62.8 312.4 60.5 L 312.4 31.5 Q 312.4 29.2 311.7 27.05 Q 311 24.9 309.2 23.45 A 5.97 5.97 0 0 0 307.203 22.415 Q 306.367 22.156 305.364 22.059 A 13.1 13.1 0 0 0 304.1 22 Q 301.628 22 299.951 22.922 A 5.914 5.914 0 0 0 299.15 23.45 Q 297.3 24.9 296.55 27.05 Q 295.8 29.2 295.8 31.5 Z M 81 60.5 L 81 31.5 Q 81 29.2 80.1 27.05 Q 79.2 24.9 77.35 23.45 A 6.69 6.69 0 0 0 74.396 22.149 A 9.265 9.265 0 0 0 72.7 22 A 11.425 11.425 0 0 0 70.681 22.168 Q 69.554 22.37 68.655 22.818 A 5.856 5.856 0 0 0 67.65 23.45 Q 65.8 24.9 65.1 27.05 Q 64.4 29.2 64.4 31.5 L 64.4 60.5 Q 64.4 62.8 65.1 65 Q 65.8 67.2 67.65 68.6 A 6.389 6.389 0 0 0 69.759 69.628 Q 70.647 69.884 71.704 69.964 A 13.214 13.214 0 0 0 72.7 70 A 10.72 10.72 0 0 0 74.678 69.829 Q 75.807 69.617 76.7 69.142 A 5.67 5.67 0 0 0 77.6 68.55 Q 79.4 67.1 80.2 64.9 A 12.978 12.978 0 0 0 80.981 61.188 A 12.117 12.117 0 0 0 81 60.5 Z M 92.1 52.4 L 92.1 60.5 Q 92.1 62.8 92.8 65 Q 93.5 67.2 95.35 68.6 A 6.389 6.389 0 0 0 97.459 69.628 Q 98.347 69.884 99.404 69.964 A 13.214 13.214 0 0 0 100.4 70 A 12.729 12.729 0 0 0 102.259 69.873 Q 103.232 69.729 104.024 69.422 A 5.625 5.625 0 0 0 105.35 68.7 Q 107.1 67.4 107.85 65.4 Q 108.6 63.4 108.7 61.2 L 108.7 42.9 L 102.8 42.9 Q 98.1 42.9 95.8 44.3 A 7.855 7.855 0 0 0 94.196 45.57 A 5.945 5.945 0 0 0 92.8 47.9 Q 92.1 50.1 92.1 52.4 Z M 137.7 52.4 L 137.7 60.5 Q 137.7 62.8 138.4 65 Q 139.1 67.2 140.95 68.6 A 6.389 6.389 0 0 0 143.059 69.628 Q 143.947 69.884 145.004 69.964 A 13.214 13.214 0 0 0 146 70 A 12.729 12.729 0 0 0 147.859 69.873 Q 148.832 69.729 149.624 69.422 A 5.625 5.625 0 0 0 150.95 68.7 Q 152.7 67.4 153.45 65.4 Q 154.2 63.4 154.3 61.2 L 154.3 42.9 L 148.4 42.9 Q 143.7 42.9 141.4 44.3 A 7.855 7.855 0 0 0 139.796 45.57 A 5.945 5.945 0 0 0 138.4 47.9 Q 137.7 50.1 137.7 52.4 Z M 37.3 40.9 L 53.9 40.9 L 53.9 31.5 Q 53.9 29.2 53.2 27.05 Q 52.5 24.9 50.7 23.45 A 5.97 5.97 0 0 0 48.703 22.415 Q 47.867 22.156 46.864 22.059 A 13.1 13.1 0 0 0 45.6 22 Q 43.128 22 41.451 22.922 A 5.914 5.914 0 0 0 40.65 23.45 Q 38.8 24.9 38.05 27.05 Q 37.3 29.2 37.3 31.5 L 37.3 40.9 Z M 203.5 40.9 L 220.1 40.9 L 220.1 31.5 Q 220.1 29.2 219.4 27.05 Q 218.7 24.9 216.9 23.45 A 5.97 5.97 0 0 0 214.903 22.415 Q 214.067 22.156 213.064 22.059 A 13.1 13.1 0 0 0 211.8 22 Q 209.328 22 207.651 22.922 A 5.914 5.914 0 0 0 206.85 23.45 Q 205 24.9 204.25 27.05 Q 203.5 29.2 203.5 31.5 L 203.5 40.9 Z M 165.349 71.951 A 1.951 1.951 0 0 0 166.5 71.3 A 1.993 1.993 0 0 0 166.964 70.59 A 2.218 2.218 0 0 0 167.1 69.8 A 3.03 3.03 0 0 0 167.079 69.434 A 2.24 2.24 0 0 0 166.5 68.15 A 1.951 1.951 0 0 0 165.494 67.576 A 2.98 2.98 0 0 0 164.8 67.5 Q 163.8 67.5 163.2 68.15 A 2.178 2.178 0 0 0 162.707 69.019 A 2.735 2.735 0 0 0 162.6 69.8 Q 162.6 70.7 163.2 71.35 A 1.936 1.936 0 0 0 164.08 71.901 A 2.49 2.49 0 0 0 164.8 72 A 2.907 2.907 0 0 0 165.349 71.951 Z" vector-effect="non-scaling-stroke"/></g></svg>